<svg width="136" height="28" viewBox="0 0 136 28" fill="none" xmlns="http://www.w3.org/2000/svg">
<path d="M29.3402 14.96C29.3402 13.5733 29.6402 12.34 30.2402 11.26C30.8402 10.1667 31.6735 9.32 32.7402 8.72C33.8202 8.10667 35.0402 7.8 36.4002 7.8C38.0668 7.8 39.4935 8.24 40.6802 9.12C41.8668 10 42.6602 11.2 43.0602 12.72H39.3002C39.0202 12.1333 38.6202 11.6867 38.1002 11.38C37.5935 11.0733 37.0135 10.92 36.3602 10.92C35.3068 10.92 34.4535 11.2867 33.8002 12.02C33.1468 12.7533 32.8202 13.7333 32.8202 14.96C32.8202 16.1867 33.1468 17.1667 33.8002 17.9C34.4535 18.6333 35.3068 19 36.3602 19C37.0135 19 37.5935 18.8467 38.1002 18.54C38.6202 18.2333 39.0202 17.7867 39.3002 17.2H43.0602C42.6602 18.72 41.8668 19.92 40.6802 20.8C39.4935 21.6667 38.0668 22.1 36.4002 22.1C35.0402 22.1 33.8202 21.8 32.7402 21.2C31.6735 20.5867 30.8402 19.74 30.2402 18.66C29.6402 17.58 29.3402 16.3467 29.3402 14.96ZM48.5746 7.2V22H45.1546V7.2H48.5746ZM52.773 9.68C52.173 9.68 51.6797 9.50667 51.293 9.16C50.9197 8.8 50.733 8.36 50.733 7.84C50.733 7.30667 50.9197 6.86667 51.293 6.52C51.6797 6.16 52.173 5.98 52.773 5.98C53.3597 5.98 53.8397 6.16 54.213 6.52C54.5997 6.86667 54.793 7.30667 54.793 7.84C54.793 8.36 54.5997 8.8 54.213 9.16C53.8397 9.50667 53.3597 9.68 52.773 9.68ZM54.473 10.84V22H51.053V10.84H54.473ZM63.7514 10.72C65.0581 10.72 66.0981 11.1467 66.8714 12C67.6581 12.84 68.0514 14 68.0514 15.48V22H64.6514V15.94C64.6514 15.1933 64.4581 14.6133 64.0714 14.2C63.6848 13.7867 63.1648 13.58 62.5114 13.58C61.8581 13.58 61.3381 13.7867 60.9514 14.2C60.5648 14.6133 60.3714 15.1933 60.3714 15.94V22H56.9514V10.84H60.3714V12.32C60.7181 11.8267 61.1848 11.44 61.7714 11.16C62.3581 10.8667 63.0181 10.72 63.7514 10.72ZM72.148 9.68C71.548 9.68 71.0547 9.50667 70.668 9.16C70.2947 8.8 70.108 8.36 70.108 7.84C70.108 7.30667 70.2947 6.86667 70.668 6.52C71.0547 6.16 71.548 5.98 72.148 5.98C72.7347 5.98 73.2147 6.16 73.588 6.52C73.9747 6.86667 74.168 7.30667 74.168 7.84C74.168 8.36 73.9747 8.8 73.588 9.16C73.2147 9.50667 72.7347 9.68 72.148 9.68ZM73.848 10.84V22H70.428V10.84H73.848ZM75.6464 16.42C75.6464 15.26 75.8798 14.2467 76.3464 13.38C76.8264 12.5133 77.4864 11.8467 78.3264 11.38C79.1798 10.9133 80.1531 10.68 81.2464 10.68C82.6464 10.68 83.8131 11.0467 84.7464 11.78C85.6931 12.5133 86.3131 13.5467 86.6064 14.88H82.9664C82.6598 14.0267 82.0664 13.6 81.1864 13.6C80.5598 13.6 80.0598 13.8467 79.6864 14.34C79.3131 14.82 79.1264 15.5133 79.1264 16.42C79.1264 17.3267 79.3131 18.0267 79.6864 18.52C80.0598 19 80.5598 19.24 81.1864 19.24C82.0664 19.24 82.6598 18.8133 82.9664 17.96H86.6064C86.3131 19.2667 85.6931 20.2933 84.7464 21.04C83.7998 21.7867 82.6331 22.16 81.2464 22.16C80.1531 22.16 79.1798 21.9267 78.3264 21.46C77.4864 20.9933 76.8264 20.3267 76.3464 19.46C75.8798 18.5933 75.6464 17.58 75.6464 16.42Z" fill="black"/>
<path d="M97.5758 7.96V10.7H91.8558V13.66H96.1358V16.32H91.8558V22H88.4358V7.96H97.5758ZM102.793 7.2V22H99.3733V7.2H102.793ZM110.352 22.16C109.258 22.16 108.272 21.9267 107.392 21.46C106.525 20.9933 105.838 20.3267 105.332 19.46C104.838 18.5933 104.592 17.58 104.592 16.42C104.592 15.2733 104.845 14.2667 105.352 13.4C105.858 12.52 106.552 11.8467 107.432 11.38C108.312 10.9133 109.298 10.68 110.392 10.68C111.485 10.68 112.472 10.9133 113.352 11.38C114.232 11.8467 114.925 12.52 115.432 13.4C115.938 14.2667 116.192 15.2733 116.192 16.42C116.192 17.5667 115.932 18.58 115.412 19.46C114.905 20.3267 114.205 20.9933 113.312 21.46C112.432 21.9267 111.445 22.16 110.352 22.16ZM110.352 19.2C111.005 19.2 111.558 18.96 112.012 18.48C112.478 18 112.712 17.3133 112.712 16.42C112.712 15.5267 112.485 14.84 112.032 14.36C111.592 13.88 111.045 13.64 110.392 13.64C109.725 13.64 109.172 13.88 108.732 14.36C108.292 14.8267 108.072 15.5133 108.072 16.42C108.072 17.3133 108.285 18 108.712 18.48C109.152 18.96 109.698 19.2 110.352 19.2ZM134.026 10.84L131.006 22H127.226L125.466 14.76L123.646 22H119.886L116.846 10.84H120.266L121.846 18.82L123.726 10.84H127.346L129.246 18.78L130.806 10.84H134.026Z" fill="#0B68F7"/>
<path d="M24.036 7.20337C23.4098 6.69605 22.6662 6.33541 21.8655 6.15066C21.0647 5.96591 20.2292 5.96223 19.4266 6.13991C17.8132 6.47433 16.403 7.39516 15.4998 8.70413C14.6015 7.39941 13.1996 6.47908 11.5939 6.13991C10.7949 5.95826 9.9625 5.95343 9.16126 6.1258C8.36002 6.29817 7.61156 6.64311 6.97404 7.1338C5.31509 8.50535 4.40162 11.5466 5.44109 14.6277C5.55869 14.9682 5.69868 15.2995 5.86108 15.6216C5.90308 15.6964 5.94157 15.7726 5.97657 15.8501C8.67498 21.0581 14.9118 23.8012 15.1848 23.9304C15.2862 23.9769 15.3976 24.0007 15.5103 24C15.623 24.0007 15.7343 23.9769 15.8358 23.9304C16.0982 23.8211 22.398 21.0978 25.0754 15.8303L25.1594 15.6613C25.3253 15.3234 25.4688 14.9755 25.5899 14.6177C26.5769 11.6361 25.6739 8.5948 24.036 7.20337ZM23.7105 15.0849C23.5635 15.3969 23.3955 15.6984 23.2065 15.9893H19.7311C19.5582 15.9884 19.3881 15.9472 19.2361 15.8692C19.0841 15.7911 18.9548 15.6788 18.8597 15.542L17.7572 13.9916L15.4158 18.4243C15.3418 18.5647 15.2338 18.6865 15.1006 18.7797C14.9674 18.873 14.8127 18.9351 14.6493 18.961H14.4813C14.3424 18.9605 14.205 18.9338 14.077 18.8826C13.949 18.8315 13.8331 18.7567 13.7358 18.6628L10.8904 15.9794H7.83501C7.64182 15.6573 7.46682 15.326 7.31003 14.9855C7.14751 14.6655 7.01403 14.333 6.91104 13.9916H11.3314C11.4696 13.9908 11.6066 14.0159 11.7345 14.0654C11.8624 14.1148 11.9788 14.1877 12.0769 14.2798L14.1768 16.2676L16.6757 11.5367C16.7588 11.3801 16.8841 11.247 17.039 11.151C17.1939 11.055 17.3728 10.9995 17.5577 10.9901C17.7402 10.9796 17.9224 11.0145 18.0863 11.0912C18.2502 11.1679 18.3901 11.2838 18.4922 11.4274L20.2771 13.9717H24.162C24.0472 14.356 23.8967 14.7271 23.7105 15.0849Z" fill="#0B68F7"/>
</svg>
